<svg id="Layer_1" xmlns="http://www.w3.org/2000/svg" viewBox="0 0 371 73"><style>.st0{fill:#726967;} .st1{fill:#FF4E00;}</style><g id="XMLID_2_"><path id="XMLID_1_" class="st0" d="M74.5 23.1h-62c-5.7 0-10.4-4.7-10.4-10.4S6.8 2.3 12.5 2.3h62c5.7 0 10.4 4.7 10.4 10.4-.1 5.7-4.7 10.4-10.4 10.4z"/><path id="XMLID_9_" class="st1" d="M85.1 52.3v8c0 5.7-4.7 10.4-10.4 10.4S64.3 66 64.3 60.3v-8c0-5.7 4.7-10.4 10.4-10.4s10.4 4.6 10.4 10.4z"/><path id="XMLID_11_" class="st1" d="M80.9 21.1L18.8 68.4c-4.5 3.5-11.1 2.5-14.6-2.1S1.6 55.1 6.1 51.7L68.3 4.5c4.5-3.5 11.1-2.6 14.6 2 3.4 4.6 2.6 11.2-2 14.6z"/><path id="XMLID_57_" class="st0" d="M109 16.3h30v8.3L121.3 45H139v8.5h-30v-8.3l17.7-20.4H109v-8.5z"/><path id="XMLID_54_" class="st0" d="M184.9 32.4v20.2h-10.8v-5.3c-1.4 2.2-3.1 3.7-4.9 4.7-1.8 1-4 1.5-6.6 1.5-3.5 0-6.3-1.1-8.5-3.2s-3.2-4.9-3.2-8.3c0-4.2 1.4-7.2 4.1-9.1 2.7-1.9 7-2.9 12.7-2.9h6.3v-.9c0-1.8-.7-3.1-2-3.9-1.3-.8-3.4-1.3-6.2-1.3-2.3 0-4.4.2-6.4.7-2 .5-3.8 1.2-5.5 2.2v-8.6c2.3-.6 4.6-1 6.9-1.3 2.3-.3 4.6-.5 6.9-.5 6.1 0 10.4 1.3 13.1 3.8 2.8 2.5 4.1 6.6 4.1 12.2zm-16.3 4.3c-2.2 0-3.9.4-5.1 1.2-1.1.8-1.7 2-1.7 3.5 0 1.4.5 2.6 1.4 3.4.9.8 2.2 1.2 3.8 1.2 2 0 3.7-.8 5.1-2.3 1.4-1.5 2.1-3.4 2.1-5.7v-1.3h-5.6z"/><path id="XMLID_21_" class="st0" d="M231.2 32.4v20.2h-10.8v-5.3c-1.4 2.2-3.1 3.7-4.9 4.7-1.8 1-4 1.5-6.6 1.5-3.5 0-6.3-1.1-8.5-3.2s-3.2-4.9-3.2-8.3c0-4.2 1.4-7.2 4.1-9.1 2.7-1.9 7-2.9 12.7-2.9h6.3v-.9c0-1.8-.7-3.1-2-3.9-1.3-.8-3.4-1.3-6.2-1.3-2.3 0-4.4.2-6.4.7-2 .5-3.8 1.2-5.5 2.2v-8.6c2.3-.6 4.6-1 6.9-1.3 2.3-.3 4.6-.5 6.9-.5 6.1 0 10.4 1.3 13.1 3.8 2.8 2.5 4.1 6.6 4.1 12.2zm-16.4 4.3c-2.2 0-3.9.4-5.1 1.2-1.1.8-1.7 2-1.7 3.5 0 1.4.5 2.6 1.4 3.4.9.8 2.2 1.2 3.8 1.2 2 0 3.7-.8 5.1-2.3 1.4-1.5 2.1-3.4 2.1-5.7v-1.3h-5.6z"/><path id="XMLID_19_" class="st0" d="M241.3 16.3H252l8.3 25.7 8.3-25.7h10.7l-13.2 37.3h-11.8l-13-37.3z"/><path id="XMLID_17_" class="st0" d="M288.4 16.3h10.7l9 25.3 7.7-25.3h10.7l-14.1 40.8c-1.4 4.1-3.1 7-5 8.7-1.9 1.7-4.4 2.5-7.5 2.5h-6.2v-7.8h3.4c1.8 0 3.1-.3 4-1 .8-.6 1.5-1.8 1.9-3.5l.3-1-14.9-38.7z"/><path id="XMLID_14_" class="st0" d="M368.9 32.3v21.3h-10.8v-5.5c-1.4 2.3-3.1 3.9-4.9 4.9-1.8 1-4 1.5-6.6 1.5-3.5 0-6.3-1.1-8.5-3.4s-3.2-5.2-3.2-8.8c0-4.4 1.4-7.6 4.1-9.6 2.7-2 7-3.1 12.7-3.1h6.3v-.9c0-1.9-.7-3.3-2-4.1-1.3-.9-3.4-1.3-6.2-1.3-2.3 0-4.4.3-6.4.8s-3.8 1.3-5.5 2.3v-9.1c2.3-.6 4.6-1.1 6.9-1.4 2.3-.3 4.6-.5 6.9-.5 6.1 0 10.4 1.3 13.1 4 2.8 2.7 4.1 7 4.1 12.9zm-16.3 4.5c-2.2 0-3.9.4-5.1 1.3-1.1.8-1.7 2.1-1.7 3.7 0 1.5.5 2.7 1.4 3.5.9.9 2.2 1.3 3.8 1.3 2 0 3.7-.8 5.1-2.4 1.4-1.6 2.1-3.6 2.1-6v-1.4h-5.6z"/></g></svg>