<?xml version="1.0" standalone="no"?>
<!DOCTYPE svg PUBLIC "-//W3C//DTD SVG 20010904//EN"
 "http://www.w3.org/TR/2001/REC-SVG-20010904/DTD/svg10.dtd">
<svg version="1.0" xmlns="http://www.w3.org/2000/svg"
 width="110.000000pt" height="110.000000pt" viewBox="0 0 110.000000 110.000000"
 preserveAspectRatio="xMidYMid meet">
<metadata>
Created by potrace 1.11, written by Peter Selinger 2001-2013
</metadata>
<g transform="translate(0.000000,110.000000) scale(0.100000,-0.100000)"
fill="#000000" stroke="none">
<path d="M188 874 c-37 -20 -61 -68 -54 -108 6 -29 55 -90 70 -87 3 1 81 1
174 1 l167 0 -25 -20 c-14 -11 -72 -56 -130 -101 -58 -44 -135 -103 -172 -131
-88 -68 -105 -106 -74 -166 15 -29 61 -59 86 -56 8 1 22 2 31 3 22 1 671 497
686 524 22 39 16 84 -16 119 l-29 33 -344 2 c-281 1 -348 -1 -370 -13z"/>
<path d="M802 474 c-34 -24 -51 -65 -50 -125 0 -74 19 -116 61 -134 44 -18 85
-11 117 20 20 21 25 37 28 95 3 43 -1 82 -8 101 -22 53 -101 76 -148 43z"/>
</g>
</svg>
